<svg width="187" height="34" viewBox="0 0 187 34" fill="none" xmlns="http://www.w3.org/2000/svg">
<g clip-path="url(#clip0_1_1663)">
<path fill-rule="evenodd" clip-rule="evenodd" d="M25.6327 27.8236C24.0007 29.4825 22.3989 31.1784 20.6539 32.7226C18.5885 34.5481 15.2982 34.3926 13.3044 32.4337C9.39604 28.5938 5.49895 24.7391 1.62448 20.8659C-0.587894 18.6552 -0.516284 15.2449 1.70362 13.0528C5.57433 9.23508 9.42619 5.39888 13.2931 1.58119C15.3736 -0.470214 18.7581 -0.540569 20.8762 1.459C22.4931 2.98829 24.0422 4.58424 25.6214 6.15057C25.2445 6.7023 24.7281 7.12813 24.2608 7.59099C22.4856 9.36468 20.6916 11.1199 18.8938 12.8713C18.2455 13.5045 17.6953 14.197 17.3824 15.0449C16.7229 16.8297 16.8962 18.5553 18.0156 20.0994C18.841 21.2399 19.9491 22.1508 20.9366 23.158C22.4781 24.7354 24.0648 26.2684 25.6327 27.8199V27.8236Z" fill="#2C599B"/>
<path fill-rule="evenodd" clip-rule="evenodd" d="M25.6855 6.15424C26.6919 5.3359 27.5549 4.37315 28.4746 3.46964C29.2246 2.72906 29.9595 1.97367 30.7548 1.28123C31.9759 0.214792 33.4646 -0.118469 35.0325 0.129625C36.1708 0.307364 37.2072 0.788741 38.059 1.64411C40.8857 4.48053 43.7539 7.27251 46.5919 10.0941C47.8017 11.2976 49.1095 12.4195 50.1686 13.7563C51.6611 15.6374 51.6988 18.2331 50.2251 20.1623C49.2528 21.4398 48.0165 22.4914 46.8783 23.6208C44.47 26.0092 42.0578 28.3938 39.6306 30.7637C38.8015 31.5709 38.0628 32.4818 37.0715 33.1187C36.02 33.7964 34.8479 34.0371 33.6003 33.9112C32.5149 33.8038 31.5576 33.3631 30.702 32.7336C30.2648 32.4115 29.9256 31.9671 29.5374 31.5783C28.3012 30.3379 27.065 29.0974 25.8288 27.8606C25.7986 27.831 25.7458 27.8273 25.7044 27.8125C25.7496 27.7569 25.7948 27.694 25.8438 27.6421C28.1467 25.3501 30.457 23.0617 32.7599 20.7696C34.8177 18.7219 34.8102 15.2337 32.7448 13.1934C30.898 11.3679 29.0474 9.54979 27.2044 7.72427C26.6881 7.21327 26.1944 6.68005 25.6893 6.15424H25.6855Z" fill="#58C4E9"/>
<path fill-rule="evenodd" clip-rule="evenodd" d="M25.6855 6.15428C26.1905 6.67639 26.6843 7.21331 27.2006 7.7243C29.0436 9.55354 30.8979 11.3717 32.741 13.1935C34.8063 15.2338 34.8139 18.7219 32.756 20.7696C30.4532 23.0617 28.1466 25.3538 25.84 27.6422C25.7873 27.694 25.7458 27.7533 25.7006 27.8125C25.678 27.8199 25.6516 27.8236 25.629 27.8199C24.0611 26.2684 22.4744 24.7354 20.9329 23.158C19.9454 22.1508 18.8373 21.2362 18.0119 20.0994C16.8925 18.5553 16.7192 16.8334 17.3787 15.0449C17.6916 14.197 18.2418 13.5045 18.8901 12.8713C20.6879 11.1199 22.4819 9.36469 24.2571 7.591C24.7244 7.12444 25.2408 6.6986 25.6177 6.15057C25.6403 6.14317 25.6591 6.14317 25.6817 6.15057L25.6855 6.15428Z" fill="#5266A8"/>
<path fill-rule="evenodd" clip-rule="evenodd" d="M95.5428 22.5988C95.5428 24.9242 95.5352 27.1311 95.5503 29.3381C95.5503 29.6713 95.4862 29.7898 95.1169 29.7787C94.1671 29.7491 93.2173 29.7602 92.2676 29.775C92.015 29.775 91.902 29.7491 91.902 29.4492C91.9133 22.9061 91.9095 16.3594 91.902 9.81639C91.902 9.5683 91.9284 9.4424 92.2374 9.44981C93.157 9.47202 94.0767 9.46462 94.9963 9.44981C95.2526 9.44981 95.3393 9.52757 95.3317 9.77936C95.3166 10.3348 95.3279 10.8902 95.3279 11.5642C95.8443 10.9347 96.3343 10.4422 96.9222 10.0608C98.279 9.1795 99.7791 8.89067 101.385 9.02397C105.481 9.35723 107.713 12.5825 108.124 15.9447C108.402 18.2627 107.939 20.3956 106.458 22.2322C104.758 24.3392 102.489 25.2019 99.7715 24.9168C98.0717 24.7391 96.6584 24.0318 95.5428 22.6025V22.5988ZM99.9826 21.599C102.549 21.599 104.588 19.5957 104.566 17.0111C104.543 14.5043 102.783 12.3788 99.9562 12.3603C97.3745 12.3455 95.3543 14.4228 95.3656 17.0407C95.3769 19.592 97.4122 21.599 99.9864 21.5953L99.9826 21.599Z" fill="#302D2E"/>
<path fill-rule="evenodd" clip-rule="evenodd" d="M180.83 18.196C178.946 18.196 177.061 18.2072 175.181 18.1849C174.777 18.1812 174.732 18.3182 174.8 18.6478C175.177 20.4104 176.782 21.7545 178.667 21.8656C180.329 21.9619 181.72 21.4879 182.639 20.0364C182.737 19.8846 182.843 19.8475 183.005 19.8512C184.06 19.8549 185.116 19.8586 186.171 19.8512C186.457 19.8512 186.514 19.9179 186.382 20.1808C185.161 22.6654 183.269 24.3725 180.457 24.8613C176.775 25.4982 173.164 23.6467 171.672 20.0438C170.1 16.252 171.634 11.9196 175.286 9.94599C179.767 7.52059 185.613 9.82379 186.823 15.1597C187.023 16.0373 187 16.9185 187 17.8072C187 18.122 186.887 18.2072 186.574 18.2072C184.659 18.196 182.745 18.1997 180.834 18.1997L180.83 18.196ZM183.329 15.3892C183.31 15.0449 183.201 14.7449 183.061 14.4524C182.161 12.5713 179.933 11.6382 177.77 12.2418C176.319 12.6454 175.35 13.5489 174.887 14.9634C174.789 15.2596 174.823 15.4263 175.237 15.4226C177.811 15.4004 180.385 15.4115 182.963 15.4115C183.08 15.4115 183.201 15.4004 183.329 15.393V15.3892Z" fill="#2F2C2D"/>
<path fill-rule="evenodd" clip-rule="evenodd" d="M119.766 18.1924C117.881 18.1924 115.997 18.2035 114.112 18.1812C113.747 18.1812 113.671 18.2886 113.739 18.6108C114.127 20.4326 115.767 21.7805 117.67 21.8656C119.317 21.936 120.689 21.4657 121.594 20.0216C121.673 19.892 121.763 19.8438 121.918 19.8438C122.988 19.8513 124.059 19.8513 125.129 19.8438C125.366 19.8438 125.468 19.8735 125.336 20.1401C124.059 22.758 122.072 24.4725 119.076 24.8872C114.847 25.4722 110.901 22.6877 110.14 18.3701C109.397 14.1636 112.115 9.83121 116.702 9.09063C121.458 8.32413 125.234 11.5642 125.86 15.5929C125.969 16.3039 125.928 17.0074 125.951 17.7184C125.962 18.0813 125.856 18.1998 125.468 18.1961C123.569 18.1775 121.669 18.1887 119.77 18.1887L119.766 18.1924ZM118.04 15.4041C119.212 15.4041 120.388 15.4041 121.56 15.4041C122.14 15.4041 122.314 15.1362 122.08 14.6005C122.057 14.545 122.035 14.4932 122.008 14.4376C121.085 12.5602 118.895 11.6308 116.758 12.2233C115.333 12.6158 114.342 13.4786 113.879 14.8783C113.705 15.4004 113.717 15.4041 114.248 15.4041C115.511 15.4041 116.777 15.4041 118.04 15.4041Z" fill="#2F2C2D"/>
<path fill-rule="evenodd" clip-rule="evenodd" d="M63.5822 11.1013C64.9804 9.22391 66.8461 8.85362 68.9491 9.04617C71.9153 9.32019 73.2872 11.1976 73.7395 13.6933C73.894 14.5561 73.9317 15.4263 73.9317 16.3001C73.9242 18.907 73.9204 21.5138 73.9355 24.1207C73.9355 24.4465 73.8639 24.5465 73.5209 24.5354C72.6314 24.5095 71.7419 24.5021 70.8525 24.5354C70.4153 24.5539 70.2758 24.465 70.2796 23.9985C70.3097 21.4509 70.2984 18.9033 70.2909 16.3557C70.2909 15.7373 70.2155 15.1226 70.0421 14.5191C69.5786 12.912 68.2443 12.364 66.8197 12.3936C64.7995 12.4343 63.6312 13.8488 63.6123 15.7595C63.5859 18.5145 63.5859 21.2694 63.5935 24.0244C63.5935 24.428 63.4993 24.5539 63.0734 24.5354C62.1537 24.4984 61.2341 24.5132 60.3145 24.5317C60.0167 24.5354 59.8999 24.4836 59.8999 24.1503C59.9112 17.6332 59.9074 11.1161 59.8999 4.59899C59.8999 4.32868 59.964 4.24352 60.2467 4.24722C61.2266 4.26573 62.2065 4.26573 63.1864 4.24722C63.5068 4.23981 63.5897 4.33609 63.5897 4.64343C63.5784 6.59856 63.5822 8.55369 63.5822 10.5088C63.5822 10.6717 63.5822 10.831 63.5822 11.1013Z" fill="#2F2D2E"/>
<path fill-rule="evenodd" clip-rule="evenodd" d="M142.048 11.1419C143.431 9.23857 145.308 8.83865 147.43 9.04972C148.467 9.1534 149.424 9.43112 150.257 10.068C151.346 10.9012 151.874 12.0602 152.156 13.3377C152.371 14.3078 152.435 15.2965 152.431 16.2889C152.428 18.8809 152.424 21.4729 152.439 24.0613C152.439 24.4093 152.379 24.55 151.983 24.5352C151.048 24.5019 150.114 24.5093 149.179 24.5352C148.832 24.5463 148.749 24.439 148.753 24.1131C148.764 21.5359 148.757 18.9587 148.761 16.3852C148.761 15.6409 148.712 14.904 148.429 14.2116C147.818 12.723 146.556 12.3675 145.338 12.4045C143.035 12.4749 142.071 13.9968 142.056 16.2778C142.04 18.8846 142.048 21.4915 142.056 24.0946C142.056 24.4167 141.999 24.5537 141.622 24.5426C140.672 24.5093 139.723 24.5241 138.773 24.5352C138.52 24.5352 138.407 24.513 138.407 24.2131C138.419 17.6701 138.415 11.1233 138.407 4.58032C138.407 4.33593 138.468 4.25447 138.731 4.25817C139.726 4.27298 140.721 4.27668 141.716 4.25817C142.014 4.25076 142.056 4.35815 142.056 4.61735C142.044 6.76133 142.052 8.90531 142.052 11.153L142.048 11.1419Z" fill="#302D2E"/>
<path fill-rule="evenodd" clip-rule="evenodd" d="M82.5852 19.3735C82.9734 18.3034 83.3352 17.3147 83.697 16.3223C84.4885 14.1561 85.28 11.9862 86.0639 9.81632C86.1619 9.54231 86.2938 9.43492 86.6104 9.44233C87.6356 9.46825 88.6607 9.46455 89.6859 9.44233C90.0665 9.43492 90.0967 9.52009 89.9648 9.85705C87.6808 15.641 85.4081 21.4286 83.1355 27.2162C82.8415 27.9679 82.5362 28.7159 82.2498 29.4713C82.1668 29.6898 82.0538 29.7823 81.7975 29.7786C80.7271 29.7601 79.6567 29.7638 78.5863 29.7749C78.2961 29.7749 78.2207 29.7416 78.3527 29.438C79.1102 27.6976 79.8452 25.9498 80.599 24.2058C80.6856 24.0058 80.6894 23.8392 80.6065 23.6318C78.7823 19.0439 76.9732 14.4523 75.1415 9.86816C74.9908 9.49417 75.0661 9.44233 75.4393 9.44974C76.4343 9.47195 77.4293 9.47566 78.4243 9.44974C78.7861 9.43863 78.9444 9.54601 79.065 9.87927C80.1768 12.9193 81.3038 15.9483 82.4307 18.9847C82.4684 19.0884 82.5136 19.1921 82.589 19.3809L82.5852 19.3735Z" fill="#2F2D2E"/>
<path fill-rule="evenodd" clip-rule="evenodd" d="M132.056 11.1791C132.784 10.0719 133.756 9.39428 135.041 9.11656C136.251 8.85736 136.247 8.83885 136.247 10.0164C136.247 10.7866 136.236 11.5568 136.255 12.327C136.259 12.5751 136.191 12.6528 135.931 12.6491C135.343 12.6417 134.762 12.7232 134.212 12.9343C132.848 13.4638 132.305 14.5635 132.282 15.9003C132.237 18.6071 132.26 21.3176 132.275 24.0281C132.275 24.4206 132.192 24.5576 131.766 24.5428C130.835 24.5058 129.897 24.5169 128.966 24.5428C128.657 24.5502 128.589 24.4503 128.589 24.1651C128.596 19.3995 128.596 14.6339 128.589 9.86455C128.589 9.57202 128.645 9.44242 128.985 9.44983C129.889 9.47204 130.794 9.46834 131.694 9.44983C132.004 9.44242 132.083 9.55351 132.068 9.83493C132.045 10.283 132.06 10.731 132.06 11.1828L132.056 11.1791Z" fill="#2F2C2D"/>
<path fill-rule="evenodd" clip-rule="evenodd" d="M166.542 11.1568C167.27 10.0682 168.238 9.38686 169.523 9.11655C170.711 8.86475 170.707 8.84624 170.707 10.0386C170.707 10.7792 170.692 11.5197 170.714 12.2603C170.726 12.5639 170.65 12.6491 170.326 12.6565C169.493 12.6676 168.683 12.8046 167.989 13.3045C167.058 13.9748 166.749 14.9523 166.738 16.015C166.708 18.6959 166.715 21.3731 166.731 24.054C166.731 24.4317 166.659 24.5613 166.244 24.5428C165.298 24.5058 164.345 24.5206 163.399 24.5354C163.112 24.5391 163.041 24.4465 163.041 24.1836C163.048 19.3884 163.048 14.5894 163.041 9.79418C163.041 9.50906 163.143 9.44981 163.41 9.45351C164.33 9.46833 165.249 9.46833 166.169 9.45351C166.463 9.44981 166.569 9.53128 166.55 9.83121C166.523 10.2719 166.542 10.7199 166.542 11.1606V11.1568Z" fill="#2F2C2D"/>
<path fill-rule="evenodd" clip-rule="evenodd" d="M159.577 17.0111C159.577 19.381 159.57 21.7508 159.585 24.117C159.585 24.4502 159.498 24.5428 159.159 24.5354C158.209 24.5132 157.259 24.5169 156.309 24.5354C156.008 24.5391 155.891 24.4798 155.891 24.1503C155.902 19.381 155.902 14.6153 155.891 9.846C155.891 9.53866 155.978 9.43868 156.298 9.44609C157.233 9.4646 158.168 9.47201 159.102 9.44609C159.472 9.43498 159.588 9.52385 159.585 9.90524C159.566 12.2751 159.577 14.645 159.577 17.0111Z" fill="#2F2D2D"/>
<path fill-rule="evenodd" clip-rule="evenodd" d="M155.929 6.5764C155.944 6.23203 156.038 5.97283 156.245 5.76177C156.675 5.32853 157.116 4.9064 157.534 4.46205C157.704 4.28431 157.802 4.31023 157.96 4.47316C158.364 4.89159 158.793 5.28039 159.197 5.69882C159.709 6.22833 159.717 6.86523 159.215 7.39845C158.808 7.83169 158.364 8.2316 157.949 8.65743C157.798 8.80925 157.7 8.81295 157.549 8.65743C157.116 8.20938 156.668 7.77244 156.227 7.33179C156 7.10592 155.94 6.8245 155.925 6.5764H155.929Z" fill="#5867A5"/>
</g>
<defs>
<clipPath id="clip0_1_1663">
<rect width="187" height="34" fill="white"/>
</clipPath>
</defs>
</svg>
